<svg xmlns="http://www.w3.org/2000/svg" viewBox="0 0 157.59 42"><defs><style>.a{fill:#b9ced6;}</style></defs><path class="a" d="M157.26,35.76a4,4,0,0,1-1.76,2.12,5.8,5.8,0,0,1-3,.74,6.91,6.91,0,0,1-2.31-.36,4.62,4.62,0,0,1-1.67-1,5.72,5.72,0,0,1-1.18-1.79h1.39A3.67,3.67,0,0,0,150.21,37a5.35,5.35,0,0,0,4.45,0A3,3,0,0,0,156,35.72a5.49,5.49,0,0,0,.39-2.4v-.51a4.94,4.94,0,0,1-1.77,1.41,5.33,5.33,0,0,1-2.23.49,5.15,5.15,0,0,1-2.59-.69,4.82,4.82,0,0,1-1.88-1.84,5,5,0,0,1-.66-2.54,5.18,5.18,0,0,1,5.17-5.18,4.8,4.8,0,0,1,2.09.46,5.74,5.74,0,0,1,1.87,1.53V24.71h1.25V0h-42V42h42V33.9A7,7,0,0,1,157.26,35.76Zm-30.78-4a4,4,0,0,0,1.53,1.5,4.47,4.47,0,0,0,2.17.53,4.39,4.39,0,0,0,3.6-1.75l1,.67a4.83,4.83,0,0,1-1.93,1.67,6.08,6.08,0,0,1-2.75.6,5.45,5.45,0,0,1-3.93-1.51,4.92,4.92,0,0,1-1.56-3.67,5.2,5.2,0,0,1,.73-2.69,5.14,5.14,0,0,1,2-2,5.93,5.93,0,0,1,2.86-.69,6.22,6.22,0,0,1,1.92.3,5.19,5.19,0,0,1,1.56.79,4.27,4.27,0,0,1,1.1,1.24l-1,.63a4.28,4.28,0,0,0-3.61-1.75,4.16,4.16,0,0,0-3,1.17,3.84,3.84,0,0,0-1.21,2.86A4.14,4.14,0,0,0,126.48,31.75Zm18.23,1.68a5,5,0,0,1-5.82,1A5.45,5.45,0,0,1,137.08,33v5.38H135.8V24.71h1.28v1.84A5.2,5.2,0,0,1,138.84,25a4.62,4.62,0,0,1,2.21-.52A4.93,4.93,0,0,1,144.69,26a5.06,5.06,0,0,1,1.52,3.69A5.18,5.18,0,0,1,144.71,33.43Z"/><path class="a" d="M142.92,26.22a3.85,3.85,0,0,0-2-.52,3.77,3.77,0,0,0-2.81,1.16,4,4,0,0,0-1.14,2.9,4.13,4.13,0,0,0,.51,2A3.81,3.81,0,0,0,139,33.25a4.07,4.07,0,0,0,2,.53,3.91,3.91,0,0,0,3.4-2,4.06,4.06,0,0,0,0-4A3.92,3.92,0,0,0,142.92,26.22Z"/><path class="a" d="M154.5,26.21a3.92,3.92,0,0,0-1.95-.51,4.06,4.06,0,0,0-2,.52,3.82,3.82,0,0,0-1.47,1.46,4,4,0,0,0-.54,2,3.63,3.63,0,0,0,1.11,2.72,4.33,4.33,0,0,0,5.71,0,3.75,3.75,0,0,0,1.07-2.8,4.06,4.06,0,0,0-.49-2A3.58,3.58,0,0,0,154.5,26.21Z"/><path class="a" d="M0,24.76H1.26v1.8A5,5,0,0,1,3,25a4.49,4.49,0,0,1,2.17-.52A4.86,4.86,0,0,1,8.73,26a5,5,0,0,1,1.48,3.62,5.08,5.08,0,0,1-1.47,3.68,4.79,4.79,0,0,1-3.55,1.51A4.82,4.82,0,0,1,3,34.33a5.5,5.5,0,0,1-1.78-1.45v5.27H0Zm5.05,1a3.73,3.73,0,0,0-2.76,1.14,4,4,0,0,0-1.12,2.85,4.1,4.1,0,0,0,.5,2A3.66,3.66,0,0,0,3.1,33.13a4,4,0,0,0,2,.52A3.73,3.73,0,0,0,7,33.13,3.93,3.93,0,0,0,8.4,31.66a4,4,0,0,0,0-4A3.81,3.81,0,0,0,7,26.24,3.74,3.74,0,0,0,5.05,25.72Z"/><path class="a" d="M17.22,24.5A4.89,4.89,0,0,1,21,26.14a5.28,5.28,0,0,1-.08,7.14,4.83,4.83,0,0,1-3.68,1.54,4.82,4.82,0,0,1-3.69-1.54,5.27,5.27,0,0,1-.08-7.13A4.87,4.87,0,0,1,17.22,24.5Zm0,1.24a3.64,3.64,0,0,0-2.7,1.16,3.9,3.9,0,0,0-1.13,2.81,4.07,4.07,0,0,0,.51,2,3.74,3.74,0,0,0,1.4,1.42,4,4,0,0,0,3.85,0,3.65,3.65,0,0,0,1.39-1.42,4,4,0,0,0,.52-2,3.87,3.87,0,0,0-1.14-2.81A3.64,3.64,0,0,0,17.21,25.74Z"/><path class="a" d="M23.34,24.76h1.3l3,7.12,3.13-7.12H31l3.15,7.12,3.07-7.12h1.31l-4.26,9.8H34l-3.14-7-3.14,7h-.23Z"/><path class="a" d="M48.27,31.31l1.06.56a5.84,5.84,0,0,1-1.21,1.66,4.86,4.86,0,0,1-1.54,1,5.37,5.37,0,0,1-1.94.33,4.71,4.71,0,0,1-3.76-1.58,5.31,5.31,0,0,1-1.35-3.55,5.2,5.2,0,0,1,1.15-3.33,4.67,4.67,0,0,1,3.89-1.86,4.83,4.83,0,0,1,4,1.91,5.28,5.28,0,0,1,1.08,3.35H40.83a4,4,0,0,0,1.09,2.8,3.46,3.46,0,0,0,2.61,1.09A4.09,4.09,0,0,0,46,33.39a3.7,3.7,0,0,0,1.2-.69A6.09,6.09,0,0,0,48.27,31.31Zm0-2.64a4.27,4.27,0,0,0-.74-1.62,3.53,3.53,0,0,0-1.28-1,3.84,3.84,0,0,0-1.67-.37,3.59,3.59,0,0,0-2.48.93,4.26,4.26,0,0,0-1.15,2Z"/><path class="a" d="M51.53,24.76h1.29v1.43A4.38,4.38,0,0,1,54,24.92a2.37,2.37,0,0,1,1.33-.42,2.25,2.25,0,0,1,1.12.34l-.66,1.06a1.82,1.82,0,0,0-.67-.17,1.79,1.79,0,0,0-1.21.52,3.22,3.22,0,0,0-.9,1.61,16,16,0,0,0-.23,3.39v3.31H51.53Z"/><path class="a" d="M65.82,31.31l1.06.56a5.84,5.84,0,0,1-1.21,1.66,4.75,4.75,0,0,1-1.54,1,5.37,5.37,0,0,1-1.94.33,4.68,4.68,0,0,1-3.75-1.58,5.27,5.27,0,0,1-1.36-3.55,5.2,5.2,0,0,1,1.15-3.33,4.68,4.68,0,0,1,3.89-1.86,4.82,4.82,0,0,1,4,1.91,5.34,5.34,0,0,1,1.09,3.35H58.38a4,4,0,0,0,1.09,2.8,3.5,3.5,0,0,0,2.61,1.09,4.05,4.05,0,0,0,1.46-.26,3.7,3.7,0,0,0,1.2-.69A5.83,5.83,0,0,0,65.82,31.31Zm0-2.64a4.27,4.27,0,0,0-.74-1.62,3.58,3.58,0,0,0-1.27-1,3.87,3.87,0,0,0-1.67-.37,3.61,3.61,0,0,0-2.49.93,4.25,4.25,0,0,0-1.14,2Z"/><path class="a" d="M79.35,21V34.56H78.11V32.88a5.54,5.54,0,0,1-1.79,1.45,5,5,0,0,1-5.71-1,5.08,5.08,0,0,1-1.47-3.68A5,5,0,0,1,70.62,26,4.87,4.87,0,0,1,74.2,24.5a4.54,4.54,0,0,1,2.19.52,5,5,0,0,1,1.72,1.54V21Zm-5,4.75a3.75,3.75,0,0,0-2,.52,3.81,3.81,0,0,0-1.42,1.45,4,4,0,0,0,0,4,3.93,3.93,0,0,0,1.42,1.47,3.75,3.75,0,0,0,1.93.52,3.91,3.91,0,0,0,2-.52,3.73,3.73,0,0,0,1.43-1.41,4.1,4.1,0,0,0,.5-2,4,4,0,0,0-1.12-2.85A3.73,3.73,0,0,0,74.31,25.72Z"/><path class="a" d="M87.4,34.56V21h1.26v5.47A5.26,5.26,0,0,1,90.44,25a4.69,4.69,0,0,1,2.15-.49A4.79,4.79,0,0,1,96.14,26a5.07,5.07,0,0,1,1.47,3.67,5,5,0,0,1-1.48,3.63,4.86,4.86,0,0,1-3.58,1.51,4.61,4.61,0,0,1-2.17-.52,5,5,0,0,1-1.72-1.54v1.8Zm5-1a3.81,3.81,0,0,0,3.36-2,4,4,0,0,0,0-4,3.86,3.86,0,0,0-1.42-1.47,3.65,3.65,0,0,0-1.91-.53,3.86,3.86,0,0,0-2,.53,3.62,3.62,0,0,0-1.43,1.42,4,4,0,0,0-.5,2,3.92,3.92,0,0,0,1.12,2.84A3.7,3.7,0,0,0,92.45,33.6Z"/><path class="a" d="M98.86,24.76h1.33l3.37,7.55,3.28-7.55h1.34l-5.85,13.39H101l1.88-4.33Z"/></svg>